<?xml version="1.0" encoding="UTF-8" standalone="no"?>
<svg
   xmlns:dc="http://purl.org/dc/elements/1.1/"
   xmlns:cc="http://creativecommons.org/ns#"
   xmlns:rdf="http://www.w3.org/1999/02/22-rdf-syntax-ns#"
   xmlns:svg="http://www.w3.org/2000/svg"
   xmlns="http://www.w3.org/2000/svg"
   xmlns:sodipodi="http://sodipodi.sourceforge.net/DTD/sodipodi-0.dtd"
   xmlns:inkscape="http://www.inkscape.org/namespaces/inkscape"
   width="260"
   height="3000"
   viewBox="0 0 260 3000"
   version="1.1"
   id="svg4"
   sodipodi:docname="bgr-schedule.svg"
   inkscape:version="0.92.2 (5c3e80d, 2017-08-06)">
  <metadata
     id="metadata10">
    <rdf:RDF>
      <cc:Work
         rdf:about="">
        <dc:format>image/svg+xml</dc:format>
        <dc:type
           rdf:resource="http://purl.org/dc/dcmitype/StillImage" />
        <dc:title></dc:title>
      </cc:Work>
    </rdf:RDF>
  </metadata>
  <defs
     id="defs8" />
  <sodipodi:namedview
     pagecolor="#ffffff"
     bordercolor="#666666"
     borderopacity="1"
     objecttolerance="10"
     gridtolerance="10"
     guidetolerance="10"
     inkscape:pageopacity="0"
     inkscape:pageshadow="2"
     inkscape:window-width="1366"
     inkscape:window-height="706"
     id="namedview6"
     showgrid="false"
     inkscape:zoom="0.59"
     inkscape:cx="87"
     inkscape:cy="588.95432"
     inkscape:window-x="-8"
     inkscape:window-y="-8"
     inkscape:window-maximized="1"
     inkscape:current-layer="svg4" />
  <path
     d="M 120.383,22.646 C 88.09,44.016 74.31,66.832 74.31,98.938 c 0,32.103 13.78,54.925 46.073,76.312 l 1.702,1.13 -14.074,21.513 -1.666,-0.914 C 63.72,173.566 43,141.498 43,98.939 43,56.392 63.72,24.33 106.345,0.918 l 1.665,-0.913 14.077,21.515 -1.705,1.126 z m 33.18,-21.724 c 42.62,23.545 63.337,55.607 63.337,98.016 0,42.423 -20.717,74.492 -63.339,98.036 l -1.668,0.923 -14.06,-21.52 1.7,-1.127 c 32.283,-21.39 46.056,-44.211 46.056,-76.312 0,-32.104 -13.773,-54.921 -46.054,-76.291 L 137.833,21.52 151.893,0 l 1.668,0.922 z"
     id="path2"
     inkscape:connector-curvature="0"
     style="fill:#ffdb1a;fill-rule:evenodd" />
  <path
     inkscape:connector-curvature="0"
     style="fill:#e30083;fill-rule:evenodd"
     d="m 43.167,499.379 h 29.736 v 42.948 h 43.167 v 28.82 H 72.903 v 42.95 H 43.167 v -42.95 H 0 v -28.82 h 43.167 z m 143.96301,0 h 29.735 v 42.948 h 43.167 v 28.82 h -43.167 v 42.95 h -29.735 v -42.95 h -43.169 v -28.82 h 43.169 z"
     id="path2-5" />
  <path
     inkscape:connector-curvature="0"
     style="fill:#00daad;fill-rule:evenodd"
     d="m 105.624,914.407 h 28.185 L 30.186998,1126.697 H 2 Z m 41.335,67.894 v -30.61 l 111.345,51.586 v 26.897 l -111.344,51.587 v -30.396 l 77.294,-34.426 -77.294,-34.638 z"
     id="path2-1" />
  <path
     inkscape:connector-curvature="0"
     style="fill:#ffdb1a;fill-rule:evenodd"
     d="m 127.624,1427.407 h 28.185 l -103.64,212.29 H 24 Z m 80.531,0 h 28.185 l -103.623,212.29 H 104.53 Z"
     id="path2-13" />
  <path
     inkscape:connector-curvature="0"
     style="fill:#e30083;fill-rule:evenodd"
     d="m 120.383,1963.646 c -32.293,21.37 -46.073,44.186 -46.073,76.292 0,32.103 13.78,54.925 46.073,76.312 l 1.702,1.13 -14.074,21.513 -1.666,-0.914 C 63.72,2114.566 43,2082.498 43,2039.939 c 0,-42.547 20.72,-74.609 63.345,-98.021 l 1.665,-0.913 14.077,21.515 -1.705,1.126 z m 33.18,-21.724 c 42.62,23.545 63.337,55.607 63.337,98.016 0,42.423 -20.717,74.492 -63.339,98.036 l -1.668,0.923 -14.06,-21.52 1.7,-1.127 c 32.283,-21.39 46.056,-44.211 46.056,-76.312 0,-32.104 -13.773,-54.921 -46.054,-76.291 l -1.702,-1.127 14.06,-21.52 1.668,0.922 z"
     id="path2-2" />
  <path
     inkscape:connector-curvature="0"
     style="fill:#00daad;fill-rule:evenodd"
     d="m 105.624,2440.407 h 28.185 L 30.187,2652.697 H 2 Z m 41.335,67.894 v -30.61 l 111.345,51.586 v 26.897 l -111.344,51.587 v -30.396 l 77.294,-34.426 -77.294,-34.638 z"
     id="path2-1-5" />
</svg>
