<svg xmlns="http://www.w3.org/2000/svg" width="116.695" height="36"><rect width="100%" height="100%" fill="none" class="selected"/><g class="currentLayer"><title>Layer 1</title><path d="M10.626 9.388c0-1.812-1.256-3.013-2.742-3.013-1.487 0-2.723 1.201-2.723 3.054 0 1.813 1.236 3.014 2.723 3.014 1.486 0 2.743-1.182 2.743-3.055zM2.021 3.951h3.183V5.52c.775-1.018 1.843-1.771 3.497-1.771 2.618 0 5.11 1.995 5.11 5.681 0 3.646-2.45 5.64-5.11 5.64-1.696 0-2.743-.752-3.497-1.628v4.684H2.021V3.95zm13.976 10.916h3.183V3.95h-3.183v10.916zM15.913 2.75h3.35V0h-3.35v2.75zm6.483 9.021V6.598h-1.34V3.951h1.34v-2.79h3.184v2.79h2.638v2.647H25.58v4.664c0 .713.314 1.059 1.026 1.059.586 0 1.11-.143 1.57-.387v2.485c-.67.386-1.445.631-2.513.631-1.947 0-3.266-.754-3.266-3.279m15.142-3.218c-.188-1.384-1.026-2.32-2.366-2.32-1.32 0-2.178.915-2.43 2.32h4.796zm-7.915.876c0-3.115 2.282-5.681 5.55-5.681 3.748 0 5.465 2.83 5.465 5.926 0 .244-.022.529-.042.814h-7.81c.313 1.406 1.318 2.139 2.742 2.139 1.068 0 1.843-.327 2.722-1.12l1.822 1.568c-1.047 1.262-2.555 2.036-4.586 2.036-3.371 0-5.863-2.3-5.863-5.682zm13.097-5.478h3.183v2.2c.65-1.508 1.696-2.485 3.58-2.403v3.237h-.167c-2.115 0-3.413 1.242-3.413 3.85v4.032h-3.183V3.95zm7.613 5.458c0-3.115 2.45-5.682 5.884-5.682 2.115 0 3.414.774 4.46 1.914l-1.862 1.833c-.691-.631-1.361-1.079-2.618-1.079-1.591 0-2.722 1.364-2.722 3.014 0 1.67 1.11 3.014 2.848 3.014 1.068 0 1.8-.448 2.576-1.16l1.863 1.831c-1.089 1.162-2.345 1.996-4.586 1.996-3.371 0-5.842-2.525-5.842-5.681M62.08 13.42l1.362-2.037c1.214.855 2.491 1.303 3.539 1.303.92 0 1.34-.325 1.34-.854 0-.673-1.09-.897-2.325-1.263-1.57-.45-3.35-1.162-3.35-3.32 0-2.22 1.843-3.462 4.104-3.462 1.424 0 2.974.469 4.188 1.263l-1.214 2.138c-1.11-.632-2.22-1.018-3.037-1.018-.774 0-1.172.326-1.172.795 0 .61 1.068.895 2.282 1.302 1.57.51 3.392 1.242 3.392 3.28 0 2.422-1.863 3.522-4.292 3.522a8 8 0 0 1-4.817-1.65m10.218 0l1.361-2.036c1.215.855 2.493 1.303 3.54 1.303.92 0 1.34-.325 1.34-.854 0-.673-1.09-.897-2.325-1.263-1.57-.45-3.35-1.162-3.35-3.32 0-2.22 1.843-3.462 4.104-3.462 1.424 0 2.974.469 4.188 1.263l-1.214 2.138c-1.11-.632-2.22-1.018-3.037-1.018-.775 0-1.173.326-1.173.795 0 .61 1.069.895 2.283 1.302 1.57.51 3.393 1.242 3.393 3.28 0 2.422-1.865 3.522-4.293 3.522a7.999 7.999 0 0 1-4.817-1.65M1.476 29.588c0-3.115 2.45-5.681 5.884-5.681 2.115 0 3.413.774 4.46 1.914l-1.864 1.833c-.69-.631-1.36-1.08-2.617-1.08-1.591 0-2.722 1.365-2.722 3.014 0 1.67 1.11 3.015 2.848 3.015 1.068 0 1.8-.449 2.575-1.161l1.864 1.833c-1.089 1.16-2.345 1.995-4.586 1.995-3.371 0-5.842-2.525-5.842-5.682m20.27 0c0-1.608-1.195-3.014-2.953-3.014-1.822 0-2.911 1.365-2.911 3.014 0 1.61 1.194 3.015 2.952 3.015 1.822 0 2.911-1.365 2.911-3.015m-9.004 0c0-3.136 2.597-5.681 6.093-5.681 3.477 0 6.052 2.504 6.052 5.681 0 3.137-2.596 5.682-6.093 5.682-3.477 0-6.052-2.504-6.052-5.682m14.004-5.477h3.183v1.548c.733-.917 1.675-1.752 3.288-1.752 2.407 0 3.81 1.547 3.81 4.052v7.066h-3.182v-6.088c0-1.467-.712-2.22-1.927-2.22-1.214 0-1.99.753-1.99 2.22v6.088h-3.181V24.11zm13.319 2.647h-1.32v-2.546h1.32v-.693c0-1.201.314-2.076.9-2.647.587-.57 1.445-.855 2.576-.855 1.005 0 1.675.122 2.262.306v2.564a4.15 4.15 0 0 0-1.445-.264c-.733 0-1.152.367-1.152 1.181v.428h2.576v2.525h-2.534v8.267h-3.183v-8.267zm14.485 1.955c-.189-1.385-1.026-2.322-2.366-2.322-1.32 0-2.178.917-2.43 2.322h4.796zm-7.916.875c0-3.115 2.283-5.681 5.55-5.681 3.748 0 5.465 2.83 5.465 5.926 0 .244-.021.53-.042.815h-7.81c.314 1.405 1.319 2.138 2.743 2.138 1.068 0 1.842-.326 2.722-1.12l1.822 1.567c-1.047 1.263-2.555 2.038-4.586 2.038-3.372 0-5.864-2.302-5.864-5.683zm13.098-5.477h3.183v2.199c.649-1.507 1.696-2.484 3.58-2.402v3.237h-.167c-2.115 0-3.413 1.242-3.413 3.848v4.033h-3.183V24.11zm15.731 4.602c-.189-1.385-1.026-2.322-2.366-2.322-1.32 0-2.178.917-2.43 2.322h4.796zm-7.916.875c0-3.115 2.283-5.681 5.55-5.681 3.748 0 5.465 2.83 5.465 5.926 0 .244-.02.53-.042.815h-7.81c.313 1.405 1.319 2.138 2.743 2.138 1.068 0 1.842-.326 2.722-1.12l1.822 1.567c-1.047 1.263-2.555 2.038-4.586 2.038-3.372 0-5.864-2.302-5.864-5.683zm13.098-5.477h3.183v1.548c.733-.917 1.675-1.752 3.287-1.752 2.409 0 3.811 1.547 3.811 4.052v7.066h-3.182v-6.088c0-1.467-.712-2.22-1.927-2.22-1.214 0-1.99.753-1.99 2.22v6.088h-3.182V24.11zm12.242 5.477c0-3.115 2.45-5.681 5.884-5.681 2.115 0 3.414.774 4.461 1.914l-1.864 1.833c-.691-.631-1.361-1.08-2.617-1.08-1.592 0-2.723 1.365-2.723 3.014 0 1.67 1.11 3.015 2.848 3.015 1.068 0 1.801-.449 2.576-1.161l1.864 1.833c-1.09 1.16-2.345 1.995-4.586 1.995-3.372 0-5.843-2.525-5.843-5.682m19.252-.875c-.188-1.385-1.026-2.322-2.366-2.322-1.32 0-2.178.917-2.43 2.322h4.796zm-7.915.875c0-3.115 2.282-5.681 5.549-5.681 3.748 0 5.466 2.83 5.466 5.926 0 .244-.021.53-.042.815h-7.811c.314 1.405 1.319 2.138 2.743 2.138 1.068 0 1.843-.326 2.722-1.12l1.822 1.567c-1.047 1.263-2.555 2.038-4.586 2.038-3.371 0-5.863-2.302-5.863-5.683zM0 9.521" fill="#242424" fill-rule="evenodd"/></g></svg>