<svg xmlns="http://www.w3.org/2000/svg" width="288.695" height="81.695"><rect width="100%" height="100%" fill="none" class="selected"/><g class="currentLayer"><title>Layer 1</title><g fill="#FFF"><path d="M194.383 4.158h-22.12a3.078 3.078 0 0 0-3.034 2.61l-8.945 57.053a1.851 1.851 0 0 0 1.821 2.144h11.35c1.057 0 1.96-.774 2.124-1.827l2.537-16.174a3.079 3.079 0 0 1 3.035-2.61h7c14.568 0 22.976-7.093 25.174-21.15.989-6.148.04-10.979-2.822-14.36-3.146-3.72-8.72-5.686-16.12-5.686zm2.552 20.837c-1.208 7.987-7.271 7.987-13.137 7.987h-3.336l2.34-14.912a1.848 1.848 0 0 1 1.82-1.566h1.53c3.993 0 7.764 0 9.708 2.288 1.164 1.37 1.515 3.4 1.075 6.203zM36.627 4.158H14.509a3.08 3.08 0 0 0-3.036 2.61L2.528 63.821a1.852 1.852 0 0 0 1.822 2.144h10.561a3.08 3.08 0 0 0 3.036-2.609l2.414-15.392a3.078 3.078 0 0 1 3.035-2.61h7c14.568 0 22.976-7.093 25.174-21.15.99-6.148.04-10.979-2.821-14.36-3.147-3.72-8.723-5.686-16.122-5.686zm2.553 20.837c-1.21 7.987-7.273 7.987-13.137 7.987h-3.337l2.34-14.912a1.847 1.847 0 0 1 1.821-1.566h1.53c3.992 0 7.764 0 9.707 2.288 1.163 1.37 1.515 3.4 1.076 6.203zM102.736 24.74h-10.59c-.908 0-1.68.664-1.822 1.566l-.465 2.98-.74-1.08c-2.295-3.349-7.407-4.468-12.511-4.468-11.7 0-21.697 8.92-23.642 21.43-1.013 6.241.424 12.206 3.942 16.37 3.232 3.824 7.844 5.416 13.34 5.416 9.43 0 14.662-6.096 14.662-6.096l-.473 2.962a1.85 1.85 0 0 0 1.821 2.145h9.538a3.078 3.078 0 0 0 3.035-2.608l5.726-36.473a1.85 1.85 0 0 0-1.821-2.144zm-14.76 20.738c-1.023 6.087-5.827 10.174-11.955 10.174-3.072 0-5.53-.994-7.111-2.876-1.567-1.865-2.157-4.523-1.66-7.483.954-6.033 5.836-10.252 11.87-10.252 3.007 0 5.45 1.003 7.06 2.903 1.623 1.913 2.26 4.588 1.796 7.534zM260.492 24.74h-10.59c-.908 0-1.68.664-1.821 1.566l-.467 2.98-.74-1.08c-2.295-3.349-7.406-4.468-12.51-4.468-11.702 0-21.697 8.92-23.642 21.43-1.013 6.241.425 12.206 3.943 16.37 3.231 3.824 7.844 5.416 13.34 5.416 9.43 0 14.662-6.096 14.662-6.096l-.473 2.962a1.85 1.85 0 0 0 1.82 2.145h9.539a3.078 3.078 0 0 0 3.035-2.608l5.726-36.473a1.851 1.851 0 0 0-1.822-2.144zm-14.76 20.738c-1.022 6.087-5.826 10.174-11.953 10.174-3.073 0-5.531-.994-7.113-2.876-1.565-1.865-2.156-4.523-1.659-7.483.954-6.033 5.834-10.252 11.868-10.252 3.007 0 5.45 1.003 7.062 2.903 1.622 1.913 2.259 4.588 1.796 7.534zM159.146 24.74H148.5c-1.018 0-1.97.51-2.543 1.356l-14.684 21.756-6.224-20.907a3.077 3.077 0 0 0-2.944-2.206h-10.464c-1.264 0-2.152 1.25-1.746 2.454l11.722 34.612-11.025 15.648c-.866 1.23.008 2.928 1.505 2.928h10.635a3.067 3.067 0 0 0 2.526-1.33l35.403-51.4c.847-1.229-.028-2.91-1.515-2.91zM272.976 5.725l-9.079 58.097a1.851 1.851 0 0 0 1.821 2.143h9.131a3.08 3.08 0 0 0 3.036-2.609l8.95-57.053a1.85 1.85 0 0 0-1.82-2.144h-10.217a1.846 1.846 0 0 0-1.822 1.566z"/></g></g></svg>