<svg width="130" height="30" viewBox="0 0 130 30" xmlns="http://www.w3.org/2000/svg"><title>logo_new_ru</title><path d="M10.599 4.145H8.987c-.496 0-.976.103-1.441.31-.466.207-.879.537-1.24.992-.362.455-.651 1.038-.869 1.752-.217.713-.325 1.565-.325 2.557 0 .971.119 1.793.356 2.465.238.671.553 1.224.946 1.658.393.434.837.75 1.333.946a4.174 4.174 0 0 0 1.55.294h1.302V4.145zM4.399 26H1.578L6.6 16.731c-1.467-.703-2.516-1.638-3.147-2.806-.63-1.167-.945-2.557-.945-4.169 0-1.24.176-2.335.527-3.286.351-.95.827-1.751 1.426-2.402a5.89 5.89 0 0 1 2.092-1.473 6.518 6.518 0 0 1 2.527-.496h3.968V26h-2.449v-8.866H8.987L4.399 26zm39.587-14.415a1.33 1.33 0 0 0-.93.372c-.269.248-.496.594-.682 1.038-.186.445-.33.967-.434 1.566-.103.6-.176 1.25-.217 1.953h4.092v-.341c0-.103-.005-.217-.016-.341a4.87 4.87 0 0 1-.015-.403c-.083-1.22-.279-2.165-.589-2.836-.31-.672-.713-1.008-1.209-1.008zm19.344 6.448c0 1.88.29 3.358.868 4.433.579 1.075 1.467 1.612 2.666 1.612.455 0 .92-.067 1.395-.201a9.71 9.71 0 0 0 1.147-.388l.248 1.767a9.14 9.14 0 0 1-1.596.76c-.59.217-1.256.325-2 .325-1.591 0-2.878-.661-3.86-1.984-.981-1.323-1.472-3.224-1.472-5.704 0-1.364.14-2.604.418-3.72.28-1.116.657-2.067 1.132-2.852.475-.785 1.044-1.395 1.705-1.829a3.825 3.825 0 0 1 2.139-.651c.682 0 1.297.093 1.844.279a5.63 5.63 0 0 1 1.473.744l-1.271 2.139c-.29-.33-.615-.61-.977-.837-.361-.227-.728-.341-1.1-.341-.434 0-.827.186-1.178.558-.351.372-.64.858-.868 1.457-.227.6-.403 1.286-.527 2.061a14.987 14.987 0 0 0-.186 2.372zm-29.45-6.045h-2.325v.31c0 .971-.031 2-.093 3.085a32.1 32.1 0 0 1-.341 3.192 24.449 24.449 0 0 1-.651 2.961c-.269.93-.61 1.736-1.023 2.418h4.433V11.988zm26.257 13.981h-2.759l-3.813-7.874-.279-.341v8.215h-2.48V10.004h2.48v7.254l.279-.31 3.379-6.944h2.635l-3.906 7.192 4.464 8.773zM24.89 10.004v15.965h-2.449v-7.626h-3.658v7.626h-2.48V10.004h2.48v6.293h3.658v-6.293h2.449zm23.405 15.252c-.517.29-1.09.542-1.72.76-.63.217-1.339.325-2.124.325-1.612 0-2.904-.672-3.875-2.015-.971-1.343-1.457-3.234-1.457-5.673 0-1.178.098-2.31.294-3.395.197-1.085.496-2.045.9-2.882.403-.838.914-1.51 1.534-2.015.62-.507 1.364-.76 2.232-.76 1.281 0 2.315.64 3.1 1.922.785 1.281 1.178 3.172 1.178 5.673v1.364h-6.665c0 1.736.294 3.09.884 4.061.589.971 1.513 1.457 2.774 1.457.475 0 .966-.067 1.473-.201a9.046 9.046 0 0 0 1.193-.388l.279 1.767zM37.569 29.1h-2.201v-3.131h-6.851V29.1h-2.201v-5.146h.961a13.7 13.7 0 0 0 1.163-3.007c.279-1.075.49-2.16.635-3.255.145-1.095.232-2.18.264-3.255.03-1.075.046-2.098.046-3.069v-1.364h6.944v13.95h1.24V29.1zm41.23-14.477V26h-1.488V4.455h1.488v10.044l6.479-10.044h1.426l-6.386 9.92L87.262 26h-1.674l-6.789-11.377zm13.423 10.571c.723 0 1.338-.3 1.845-.899.506-.6.904-1.323 1.193-2.17v-4.433h-1.674c-1.302 0-2.273.315-2.914.946-.64.63-.961 1.637-.961 3.022 0 1.116.227 1.984.682 2.604.455.62 1.064.93 1.829.93zm3.472.806c-.062-.207-.13-.47-.201-.79-.073-.32-.13-.76-.171-1.318-.372.744-.837 1.333-1.395 1.767-.558.434-1.23.651-2.015.651-1.054 0-1.912-.398-2.573-1.193-.661-.796-.992-1.907-.992-3.333 0-1.674.444-2.94 1.333-3.797.889-.858 2.18-1.287 3.875-1.287h1.705v-1.953c0-1.22-.217-2.103-.651-2.65-.434-.548-1.085-.822-1.953-.822-.661 0-1.281.15-1.86.45a3.88 3.88 0 0 0-1.426 1.255l-.403-1.333c.31-.413.78-.78 1.41-1.1.63-.32 1.39-.481 2.279-.481 1.281 0 2.263.367 2.945 1.1.682.734 1.023 1.876 1.023 3.426v8.525c0 .537.031 1.08.093 1.628.062.547.145.966.248 1.255h-1.271zm8.773-.899c.517 0 .966-.083 1.348-.248.383-.165.708-.362.977-.589.31-.227.568-.506.775-.837l.465 1.147a3.99 3.99 0 0 1-.899.868c-.29.227-.661.429-1.116.605-.455.175-.982.263-1.581.263-1.57 0-2.785-.708-3.643-2.123-.857-1.416-1.286-3.405-1.286-5.968 0-2.583.424-4.588 1.271-6.014.847-1.426 2.077-2.139 3.689-2.139.827 0 1.514.14 2.062.418.547.28.997.626 1.348 1.039l-.403 1.488a5.718 5.718 0 0 0-1.255-1.24c-.486-.351-1.07-.527-1.752-.527-1.22 0-2.118.604-2.697 1.813-.579 1.21-.868 2.93-.868 5.162 0 2.19.284 3.885.852 5.084.569 1.199 1.473 1.798 2.713 1.798zm10.137 0c.517 0 .966-.083 1.348-.248.383-.165.708-.362.977-.589.31-.227.568-.506.775-.837l.465 1.147a3.99 3.99 0 0 1-.899.868c-.29.227-.661.429-1.116.605-.455.175-.982.263-1.581.263-1.57 0-2.785-.708-3.642-2.123-.858-1.416-1.287-3.405-1.287-5.968 0-2.583.424-4.588 1.271-6.014.847-1.426 2.077-2.139 3.689-2.139.827 0 1.514.14 2.062.418.547.28.997.626 1.348 1.039l-.403 1.488a5.718 5.718 0 0 0-1.255-1.24c-.486-.351-1.07-.527-1.752-.527-1.22 0-2.118.604-2.697 1.813-.579 1.21-.868 2.93-.868 5.162 0 2.19.284 3.885.853 5.084.568 1.199 1.472 1.798 2.712 1.798zm8.99.093c.723 0 1.338-.3 1.845-.899.506-.6.904-1.323 1.193-2.17v-4.433h-1.674c-1.302 0-2.273.315-2.914.946-.64.63-.961 1.637-.961 3.022 0 1.116.227 1.984.682 2.604.455.62 1.064.93 1.829.93zm3.472.806c-.062-.207-.13-.47-.202-.79a9.467 9.467 0 0 1-.17-1.318c-.372.744-.837 1.333-1.395 1.767-.558.434-1.23.651-2.015.651-1.054 0-1.912-.398-2.573-1.193-.661-.796-.992-1.907-.992-3.333 0-1.674.444-2.94 1.333-3.797.889-.858 2.18-1.287 3.875-1.287h1.705v-1.953c0-1.22-.217-2.103-.651-2.65-.434-.548-1.085-.822-1.953-.822-.661 0-1.281.15-1.86.45a3.88 3.88 0 0 0-1.426 1.255l-.403-1.333c.31-.413.78-.78 1.41-1.1.63-.32 1.39-.481 2.279-.481 1.281 0 2.263.367 2.945 1.1.682.734 1.023 1.876 1.023 3.426v8.525c0 .537.031 1.08.093 1.628.062.547.145.966.248 1.255h-1.271z" fill="#FFF" fill-rule="evenodd"/></svg>