<svg xmlns="http://www.w3.org/2000/svg" width="26" height="26" viewBox="0 0 26 26"><g fill="#B4BDC7" fill-rule="evenodd"><path d="M18.04 0H7.692C3.493 0 .072 3.459.072 7.703v10.46c0 4.245 3.421 7.704 7.62 7.704H18.04c4.2 0 7.62-3.459 7.62-7.703V7.704C25.66 3.458 22.24 0 18.04 0zm5.049 18.164c0 2.817-2.261 5.103-5.049 5.103H7.692c-2.787 0-5.048-2.286-5.048-5.103V7.704c0-2.818 2.26-5.104 5.048-5.104H18.04c2.788 0 5.049 2.286 5.049 5.103v10.46z"/><path d="M12.86 6.24c-3.648 0-6.615 3-6.615 6.687 0 3.689 2.967 6.688 6.615 6.688 3.65 0 6.616-3 6.616-6.688 0-3.688-2.967-6.687-6.616-6.687zm0 10.787c-2.237 0-4.043-1.826-4.043-4.087 0-2.262 1.806-4.088 4.043-4.088s4.044 1.826 4.044 4.088c0 2.26-1.807 4.087-4.044 4.087zm6.628-9.118A1.6 1.6 0 0 1 17.897 6.3a1.6 1.6 0 0 1 1.59-1.608c.886 0 1.592.714 1.592 1.608a1.6 1.6 0 0 1-1.591 1.609z"/></g></svg>