<svg xmlns="http://www.w3.org/2000/svg" width="28" height="23" viewBox="0 0 28 23"><path fill="#B4BDC7" fill-rule="evenodd" d="M28 2.72c-1.026.46-2.137.78-3.298.919A5.84 5.84 0 0 0 27.23.422a11.37 11.37 0 0 1-3.657 1.41A5.704 5.704 0 0 0 19.386 0c-3.17 0-5.741 2.601-5.741 5.806 0 .458.052.898.146 1.323C9.014 6.886 4.786 4.58 1.95 1.062a5.814 5.814 0 0 0-.779 2.922 5.815 5.815 0 0 0 2.555 4.828 5.609 5.609 0 0 1-2.596-.725v.07c0 2.817 1.981 5.166 4.604 5.703a5.865 5.865 0 0 1-2.596.095c.735 2.307 2.852 3.982 5.365 4.035a11.462 11.462 0 0 1-7.135 2.48c-.461 0-.914-.027-1.367-.078A16.125 16.125 0 0 0 8.808 23c10.56 0 16.338-8.848 16.338-16.519l-.018-.752A11.642 11.642 0 0 0 28 2.721z"/></svg>