<svg xmlns="http://www.w3.org/2000/svg" xmlns:xlink="http://www.w3.org/1999/xlink" version="1.1" width="288.6949151583492" height="81.69491515834932" enable-background="new 0 0 404.655 98.179" xml:space="preserve"><rect id="backgroundrect" width="100%" height="100%" x="0" y="0" fill="none" stroke="none" style="" class="selected"/>







<g class="currentLayer" style=""><title>Layer 1</title><g id="svg_1" class="">
	<g id="svg_2">
		<g id="svg_3">
			<path fill="#FFFFFF" d="M194.38260891585392,4.158390121459959 h-22.119156200051307 c-1.511987622141838,0 -2.7993143615722653,1.107 -3.034910066008568,2.6100000000000003 l-8.944684170961379,57.053 c-0.17595122230052954,1.126 0.6878996939659122,2.144 1.8211448545455933,2.144 h11.349350875735283 c1.0576954832077028,0 1.9603153128623962,-0.774 2.124337638735771,-1.827 l2.5368786401748658,-16.174 c0.23559570443630223,-1.5030000000000001 1.5229224438667297,-2.6100000000000003 3.0359041407108305,-2.6100000000000003 h6.999279978632927 c14.568164761662482,0 22.97604859340191,-7.093 25.173947760105136,-21.15 c0.9891043287515641,-6.148 0.03976298809051515,-10.979 -2.8221780797243117,-14.361 C207.35727192978902,6.12439012145996 201.7825009994988,4.158390121459959 194.38260891585392,4.158390121459959 zM196.93539275126503,24.995390121459963 c-1.2087948379516602,7.987 -7.271656447052956,7.987 -13.1376912651062,7.987 h-3.33611470079422 l2.340051849126816,-14.912 c0.14215268242359166,-0.902 0.9145487260818482,-1.566 1.8211448545455933,-1.566 h1.5298809667825701 c3.9922040042877196,0 7.763723424673081,0 9.707139467597008,2.2880000000000003 C197.02386539976644,20.162390121459964 197.37477376966518,22.19139012145996 196.93539275126503,24.995390121459963 z" id="svg_4"/>
			<path fill="#FFFFFF" d="M36.62692996554417,4.158390121459959 h-22.118162125349045 c-1.511987622141838,0 -2.7993143615722653,1.107 -3.0359041407108305,2.6100000000000003 l-8.944684170961379,57.053 c-0.17595122230052954,1.126 0.6888937686681751,2.144 1.8221389292478563,2.144 h10.56104963684082 c1.511987622141838,0 2.7993143615722653,-1.106 3.0359041407108305,-2.609 l2.413613377094269,-15.392 c0.23559570443630223,-1.5030000000000001 1.5229224438667297,-2.6100000000000003 3.034910066008568,-2.6100000000000003 h6.999279978632927 c14.569158836364746,0 22.977042668104172,-7.093 25.174941834807395,-21.15 c0.9891043287515641,-6.148 0.03976298809051515,-10.979 -2.821184005022049,-14.361 C49.60159297947928,6.12439012145996 44.02582797448679,4.158390121459959 36.62692996554417,4.158390121459959 zM39.179713800955255,24.995390121459963 c-1.2087948379516602,7.987 -7.272650521755218,7.987 -13.136697190403938,7.987 h-3.337108775496483 l2.340051849126816,-14.912 c0.14215268242359166,-0.902 0.9135546513795854,-1.566 1.8211448545455933,-1.566 h1.5298809667825701 c3.9922040042877196,0 7.763723424673081,0 9.707139467597008,2.2880000000000003 C39.26719237475438,20.162390121459964 39.61909481935545,22.19139012145996 39.179713800955255,24.995390121459963 z" id="svg_5"/>
			<path fill="#FFFFFF" d="M102.7358798901324,24.74039012145996 h-10.589877803206445 c-0.907590203166008,0 -1.679986246824265,0.6640000000000003 -1.8221389292478563,1.566 l-0.46522696065902713,2.979 l-0.7405856531858447,-1.079 c-2.294324412822723,-3.349 -7.405856531858444,-4.468 -12.510430127978326,-4.468 c-11.70025924563408,0 -21.696674451589583,8.92 -23.64207864391804,21.43 c-1.012962121605873,6.241 0.42446989786624917,12.206 3.942500269174576,16.369 c3.231736857056618,3.825 7.8442434755563735,5.417 13.339488429665566,5.417 c9.430786700367928,0 14.662601858377457,-6.096 14.662601858377457,-6.096 l-0.4731795582771302,2.962 c-0.17793937170505528,1.126 0.6869056192636493,2.145 1.8211448545455933,2.145 h9.53814676821232 c1.511987622141838,0 2.798320286870003,-1.106 3.034910066008568,-2.608 l5.72587028503418,-36.473 C104.73397004168076,25.757390121459963 103.86912505071206,24.74039012145996 102.7358798901324,24.74039012145996 zM87.97585871093315,45.47839012145996 c-1.0229028686285018,6.087 -5.827265904664993,10.174 -11.954742369413376,10.174 c-3.0716908299922943,0 -5.531031643390656,-0.994 -7.111610419988632,-2.8760000000000003 c-1.5666617307662964,-1.8650000000000002 -2.1561480292081834,-4.523 -1.6591106780767442,-7.483 c0.9533176394701006,-6.033 5.835218502283096,-10.252 11.869251945018767,-10.252 c3.007075974345207,0 5.449517517805099,1.003 7.060912610173225,2.903 C87.80288971273944,39.857390121459964 88.44009159688993,42.53239012145996 87.97585871093315,45.47839012145996 z" id="svg_6"/>
			<path fill="#FFFFFF" d="M260.4915588404421,24.74039012145996 h-10.589877803206445 c-0.907590203166008,0 -1.679986246824265,0.6640000000000003 -1.8211448545455933,1.566 l-0.46622103536129006,2.979 l-0.7405856531858447,-1.079 c-2.294324412822723,-3.349 -7.405856531858444,-4.468 -12.510430127978326,-4.468 c-11.701253320336342,0 -21.696674451589583,8.92 -23.641084569215774,21.43 c-1.012962121605873,6.241 0.42446989786624917,12.206 3.942500269174576,16.369 c3.231736857056618,3.825 7.8442434755563735,5.417 13.339488429665566,5.417 c9.430786700367928,0 14.662601858377457,-6.096 14.662601858377457,-6.096 l-0.4731795582771302,2.962 c-0.17793937170505528,1.126 0.6869056192636493,2.145 1.8211448545455933,2.145 h9.53814676821232 c1.511987622141838,0 2.798320286870003,-1.106 3.034910066008568,-2.608 l5.72587028503418,-36.473 C262.49064306669277,25.757390121459963 261.62480400102186,24.74039012145996 260.4915588404421,24.74039012145996 zM245.73253173594517,45.47839012145996 c-1.0229028686285018,6.087 -5.82627182996273,10.174 -11.953748294711113,10.174 c-3.0726849046945572,0 -5.531031643390656,-0.994 -7.1126044946908955,-2.8760000000000003 c-1.5656676560640337,-1.8650000000000002 -2.1561480292081834,-4.523 -1.6591106780767442,-7.483 c0.9543117141723635,-6.033 5.834224427580833,-10.252 11.868257870316505,-10.252 c3.007075974345207,0 5.449517517805099,1.003 7.061906684875488,2.903 C245.55856866304916,39.857390121459964 246.1957705471997,42.53239012145996 245.73253173594517,45.47839012145996 z" id="svg_7"/>
			<path fill="#FFFFFF" d="M159.14564294474167,24.74039012145996 h-10.645545986533165 c-1.0179324951171875,0 -1.970256059885025,0.509 -2.5428430883884428,1.356 l-14.68447150182724,21.756 l-6.223901710867882,-20.907 c-0.3896772832870485,-1.308 -1.586543224811554,-2.206 -2.9434551934003834,-2.206 h-10.46462439072132 c-1.2634689465761184,0 -2.152171730399132,1.25 -1.7455951771736147,2.454 l11.722128889083862,34.612 l-11.025282522797584,15.648 c-0.8658390656709674,1.229 0.007952597618103031,2.928 1.505029099225998,2.928 h10.634611164808273 c1.0079917480945588,0 1.9513686405420305,-0.4970000000000001 2.525943818449974,-1.331 l35.40297644639015,-51.399 C161.5075644373183,26.422390121459962 160.63277869932696,24.74039012145996 159.14564294474167,24.74039012145996 z" id="svg_8"/>
			<path fill="#FFFFFF" d="M272.97614302616165,5.725390121459959 l-9.078884255766868,58.097 c-0.17595122230052954,1.125 0.6888937686681751,2.143 1.8211448545455933,2.143 h9.13057614028454 c1.511987622141838,0 2.7993143615722653,-1.106 3.0359041407108305,-2.609 l8.950648619174958,-57.053 c0.1769452970027924,-1.126 -0.6878996939659122,-2.144 -1.8211448545455933,-2.144 h-10.216105715155601 C273.8896976775412,4.158390121459959 273.11730163388296,4.823390121459962 272.97614302616165,5.725390121459959 z" id="svg_9"/>
		</g>
	</g>
</g><g id="svg_10" class="">
</g><g id="svg_11" class="">
</g><g id="svg_12" class="">
</g><g id="svg_13" class="">
</g><g id="svg_14" class="">
</g><g id="svg_15" class="">
</g></g></svg>