<svg xmlns="http://www.w3.org/2000/svg" width="31" height="17" viewBox="0 0 31 17">
    <path fill="#B4BDC7" fill-rule="evenodd" d="M15.174 16.927h1.854s.558-.057.843-.354c.262-.274.25-.787.25-.787s-.036-2.385 1.116-2.74c1.141-.342 2.602 2.306 4.147 3.333 1.176.776 2.055.605 2.055.605l4.146-.057s2.162-.126 1.14-1.769c-.082-.137-.593-1.21-3.076-3.424-2.602-2.316-2.246-1.94.879-5.945 1.9-2.443 2.661-3.926 2.423-4.565-.225-.605-1.627-.445-1.627-.445L24.667.8s-.345-.045-.606.103c-.25.148-.416.48-.416.48s-.737 1.882-1.723 3.492c-2.079 3.389-2.91 3.56-3.243 3.355-.784-.491-.594-1.963-.594-3.024 0-3.287.523-4.645-1.01-4.999-.51-.114-.879-.194-2.174-.205-1.663-.012-3.077 0-3.873.376-.534.251-.938.81-.689.833.309.034 1.01.183 1.378.662.475.628.464 2.032.464 2.032s.273 3.868-.642 4.348c-.63.33-1.485-.343-3.338-3.413-.95-1.575-1.664-3.31-1.664-3.31s-.142-.319-.38-.501C5.86.824 5.444.756 5.444.756L1.013.779S.348.8.098 1.075c-.214.251-.012.754-.012.754s3.47 7.794 7.402 11.72c3.6 3.618 7.686 3.378 7.686 3.378z"/>
</svg>
