<svg xmlns="http://www.w3.org/2000/svg" width="181.563" height="37.563"><rect width="100%" height="100%" fill="none" class="selected"/><g class="currentLayer"><title>Layer 1</title><g fill="none" fill-rule="evenodd"><path fill="#FFCB4D" d="M45.34.29l.816 4.667-3.648-2.86-1.441 2.496 4.133 1.65-4.14 1.455 1.434 2.496 3.475-2.793-.534 4.584 2.867-.006-.816-4.427 3.607 2.784L52.5 7.9l-4.419-1.84 4.489-1.655-1.48-2.442-3.466 2.665.59-4.339z"/><path fill="#00E2B5" d="M20.897.336L0 35.358h14.027L34.873.335z"/><path d="M75.31 9.614c0-1.856-1.256-3.086-2.742-3.086-1.487 0-2.723 1.23-2.723 3.128 0 1.856 1.236 3.086 2.723 3.086 1.486 0 2.743-1.21 2.743-3.128zm-8.605-5.568h3.183v1.606c.775-1.043 1.843-1.814 3.497-1.814 2.618 0 5.11 2.043 5.11 5.818 0 3.733-2.45 5.776-5.11 5.776-1.696 0-2.743-.771-3.497-1.668v4.796h-3.183V4.046zm13.976 11.178h3.183V4.046h-3.183v11.178zm-.084-12.408h3.35V0h-3.35v2.816zm6.483 9.238V6.757h-1.34V4.046h1.34V1.189h3.184v2.857h2.638v2.711h-2.638v4.776c0 .73.314 1.084 1.026 1.084.586 0 1.11-.146 1.57-.396v2.544c-.67.396-1.445.647-2.513.647-1.947 0-3.266-.772-3.266-3.358m15.142-3.295c-.188-1.418-1.026-2.377-2.366-2.377-1.32 0-2.178.938-2.43 2.377h4.796zm-7.915.897c0-3.19 2.282-5.818 5.55-5.818 3.748 0 5.465 2.898 5.465 6.068 0 .25-.022.542-.042.834h-7.81c.313 1.44 1.318 2.19 2.742 2.19 1.068 0 1.843-.334 2.722-1.147l1.822 1.606c-1.047 1.293-2.555 2.085-4.586 2.085-3.371 0-5.863-2.356-5.863-5.818zm13.097-5.61h3.183v2.252c.65-1.543 1.696-2.544 3.58-2.46v3.315h-.167c-2.115 0-3.413 1.272-3.413 3.942v4.129h-3.183V4.046zm7.613 5.589c0-3.19 2.45-5.818 5.884-5.818 2.115 0 3.414.792 4.46 1.96L123.5 7.654c-.691-.647-1.361-1.105-2.618-1.105-1.591 0-2.722 1.396-2.722 3.086 0 1.71 1.11 3.086 2.848 3.086 1.068 0 1.8-.458 2.576-1.188l1.863 1.876c-1.089 1.19-2.345 2.044-4.586 2.044-3.371 0-5.842-2.586-5.842-5.818m11.745 4.108l1.362-2.085c1.214.875 2.491 1.334 3.539 1.334.92 0 1.34-.333 1.34-.875 0-.689-1.09-.918-2.325-1.293-1.57-.46-3.35-1.19-3.35-3.4 0-2.273 1.843-3.545 4.104-3.545 1.424 0 2.974.48 4.188 1.293l-1.214 2.19c-1.11-.647-2.22-1.043-3.037-1.043-.774 0-1.172.334-1.172.814 0 .625 1.068.917 2.282 1.334 1.57.521 3.392 1.272 3.392 3.358 0 2.481-1.863 3.607-4.292 3.607a7.88 7.88 0 0 1-4.817-1.689m10.218 0l1.361-2.085c1.215.875 2.493 1.334 3.54 1.334.92 0 1.34-.333 1.34-.875 0-.689-1.09-.918-2.325-1.293-1.57-.46-3.35-1.19-3.35-3.4 0-2.273 1.843-3.545 4.104-3.545 1.424 0 2.974.48 4.188 1.293l-1.214 2.19c-1.11-.647-2.22-1.043-3.037-1.043-.775 0-1.173.334-1.173.814 0 .625 1.069.917 2.283 1.334 1.57.521 3.393 1.272 3.393 3.358 0 2.481-1.865 3.607-4.293 3.607-1.571 0-3.33-.52-4.817-1.689M66.16 30.298c0-3.19 2.45-5.818 5.884-5.818 2.115 0 3.413.793 4.46 1.96l-1.864 1.877c-.69-.646-1.36-1.105-2.617-1.105-1.591 0-2.722 1.397-2.722 3.086 0 1.71 1.11 3.087 2.848 3.087 1.068 0 1.8-.459 2.575-1.189l1.864 1.877c-1.089 1.189-2.345 2.043-4.586 2.043-3.371 0-5.842-2.585-5.842-5.818m20.27 0c0-1.647-1.195-3.086-2.953-3.086-1.822 0-2.911 1.397-2.911 3.086 0 1.648 1.194 3.087 2.952 3.087 1.822 0 2.911-1.397 2.911-3.087m-9.004 0c0-3.211 2.597-5.818 6.093-5.818 3.477 0 6.052 2.565 6.052 5.818 0 3.212-2.596 5.818-6.093 5.818-3.477 0-6.052-2.564-6.052-5.818m14.004-5.609h3.183v1.585c.733-.939 1.675-1.794 3.288-1.794 2.407 0 3.81 1.585 3.81 4.15v7.236h-3.182v-6.235c0-1.502-.712-2.273-1.927-2.273-1.214 0-1.99.771-1.99 2.273v6.235H91.43V24.689zm13.319 2.711h-1.32v-2.607h1.32v-.71c0-1.23.314-2.126.9-2.71.587-.584 1.445-.876 2.576-.876 1.005 0 1.675.125 2.262.313v2.626c-.461-.166-.9-.27-1.445-.27-.733 0-1.152.375-1.152 1.209v.438h2.576v2.586h-2.534v8.466h-3.183v-8.466zm14.485 2.002c-.189-1.418-1.026-2.378-2.366-2.378-1.32 0-2.178.939-2.43 2.378h4.796zm-7.916.896c0-3.19 2.283-5.818 5.55-5.818 3.748 0 5.465 2.899 5.465 6.069 0 .25-.021.542-.042.834h-7.81c.314 1.439 1.319 2.19 2.743 2.19 1.068 0 1.842-.334 2.722-1.147l1.822 1.605c-1.047 1.293-2.555 2.086-4.586 2.086-3.372 0-5.864-2.357-5.864-5.819zm13.098-5.609h3.183v2.252c.649-1.543 1.696-2.544 3.58-2.46v3.315h-.167c-2.115 0-3.413 1.272-3.413 3.941v4.13h-3.183V24.688zm15.731 4.713c-.189-1.418-1.026-2.378-2.366-2.378-1.32 0-2.178.939-2.43 2.378h4.796zm-7.916.896c0-3.19 2.283-5.818 5.55-5.818 3.748 0 5.465 2.899 5.465 6.069 0 .25-.02.542-.042.834h-7.81c.313 1.439 1.319 2.19 2.743 2.19 1.068 0 1.842-.334 2.722-1.147l1.822 1.605c-1.047 1.293-2.555 2.086-4.586 2.086-3.372 0-5.864-2.357-5.864-5.819zm13.098-5.609h3.183v1.585c.733-.939 1.675-1.794 3.287-1.794 2.409 0 3.811 1.585 3.811 4.15v7.236h-3.182v-6.235c0-1.502-.712-2.273-1.927-2.273-1.214 0-1.99.771-1.99 2.273v6.235h-3.182V24.689zm12.242 5.609c0-3.19 2.45-5.818 5.884-5.818 2.115 0 3.414.793 4.461 1.96l-1.864 1.877c-.691-.646-1.361-1.105-2.617-1.105-1.592 0-2.723 1.397-2.723 3.086 0 1.71 1.11 3.087 2.848 3.087 1.068 0 1.801-.459 2.576-1.189l1.864 1.877c-1.09 1.189-2.345 2.043-4.586 2.043-3.372 0-5.843-2.585-5.843-5.818m19.252-.896c-.188-1.418-1.026-2.378-2.366-2.378-1.32 0-2.178.939-2.43 2.378h4.796zm-7.915.896c0-3.19 2.282-5.818 5.549-5.818 3.748 0 5.466 2.899 5.466 6.069 0 .25-.021.542-.042.834h-7.811c.314 1.439 1.319 2.19 2.743 2.19 1.068 0 1.843-.334 2.722-1.147l1.822 1.605c-1.047 1.293-2.555 2.086-4.586 2.086-3.371 0-5.863-2.357-5.863-5.819zM64.684 9.75" fill="#242424"/></g></g></svg>