<svg xmlns="http://www.w3.org/2000/svg" width="116.69491515834943" height="36" style=""><rect id="backgroundrect" width="100%" height="100%" x="0" y="0" fill="none" stroke="none" style="" class="selected"/>

<g class="currentLayer" style=""><title>Layer 1</title><g fill="none" fill-rule="evenodd" id="svg_1" class="">
        <g fill="#242424" id="svg_4">
            <path d="M10.626000000000001,9.388415153503418 c0,-1.8124504394531251 -1.256,-3.0135894699096677 -2.742,-3.0135894699096677 c-1.487,0 -2.723,1.201139030456543 -2.723,3.054603973388672 c0,1.8124504394531251 1.236,3.0135894699096677 2.723,3.0135894699096677 c1.486,0 2.7430000000000003,-1.18160831451416 2.7430000000000003,-3.054603973388672 zM2.0209999999999972,3.9510638351440432 h3.183 v1.56831649017334 c0.775,-1.0185268363952635 1.843,-1.7714359359741212 3.497,-1.7714359359741212 c2.6180000000000003,0 5.11,1.9950626335144044 5.11,5.68148526763916 c0,3.645408130645752 -2.45,5.640470764160156 -5.11,5.640470764160156 c-1.6960000000000006,0 -2.7430000000000003,-0.7529090995788594 -3.497,-1.6288617095947266 v4.6834656829834005 h-3.183 V3.9510638351440432 zM15.996999999999996,14.866780975341799 h3.183 V3.9510638351440432 h-3.183 v10.915717140197755 zM15.912999999999993,2.7499248046875016 h3.35 V-4.440892106772432e-16 h-3.35 V2.7499248046875016 zM22.395999999999997,11.771162498474121 V6.598452381134033 h-1.34 V3.9510638351440432 h1.34 V1.1611010627746579 h3.184 V3.9510638351440432 h2.638 v2.6473885459899904 h-2.638 v4.6639349670410155 c0,0.712871131896973 0.3140000000000007,1.0585648040771485 1.026,1.0585648040771485 c0.5860000000000006,0 1.11,-0.1425742263793947 1.57,-0.38670817565918086 v2.484307067871094 c-0.6700000000000019,0.38670817565918086 -1.445,0.6318186607360846 -2.513,0.6318186607360846 c-1.947,0 -3.266,-0.7538856353759783 -3.266,-3.2792072067260745 M37.539,8.553477046966552 c-0.1880000000000004,-1.3847277603149428 -1.026,-2.3212255897521974 -2.366,-2.3212255897521974 c-1.32,0 -2.178,0.9159905776977546 -2.43,2.3212255897521974 h4.796 zm-7.915,0.8759526100158713 c0,-3.1151491928100588 2.282,-5.68148526763916 5.55,-5.68148526763916 c3.748,0 5.465,2.8300007400512697 5.465,5.925619216918945 c0,0.24413394927978516 -0.02200000000000007,0.5292824020385754 -0.042000000000000114,0.8144308547973627 h-7.8100000000000005 c0.3130000000000007,1.4062115478515624 1.318,2.138613395690918 2.742,2.138613395690918 c1.068,0 1.843,-0.32616295623779384 2.722,-1.1200865592956544 l1.822,1.56831649017334 c-1.047,1.2626607856750491 -2.555,2.0360771369934083 -4.586,2.0360771369934083 c-3.371,0 -5.863,-2.300718338012695 -5.863,-5.68148526763916 zM42.721000000000004,3.9510638351440432 h3.183 v2.1991586151123044 c0.6500000000000017,-1.506794734954834 1.6960000000000006,-2.484307067871094 3.58,-2.402278060913086 v3.2372161674499513 h-0.1670000000000005 c-2.115,0 -3.4130000000000003,1.242153533935547 -3.4130000000000003,3.8495041122436526 v4.032116306304931 h-3.183 V3.9510638351440432 zM50.334,9.40892240524292 c0,-3.1151491928100588 2.45,-5.68148526763916 5.884,-5.68148526763916 c2.115,0 3.414,0.7734163513183582 4.46,1.9140101623535157 L58.816,7.474404991149903 c-0.6910000000000022,-0.6318186607360846 -1.361,-1.0790720558166504 -2.6180000000000003,-1.0790720558166504 c-1.5910000000000002,0 -2.722,1.3632439727783205 -2.722,3.0135894699096677 c0,1.669876213073733 1.11,3.0135894699096677 2.848,3.0135894699096677 c1.068,0 1.8,-0.44725339508056694 2.576,-1.160124526977539 l1.863,1.831981155395508 c-1.089,1.1620775985717773 -2.345,1.9960391693115234 -4.586,1.9960391693115234 c-3.371,0 -5.8420000000000005,-2.525321571350098 -5.8420000000000005,-5.68148526763916 M62.08,13.42053145980835 l1.362,-2.0360771369934083 c1.214,0.8544688224792486 2.491,1.3026987533569336 3.539,1.3026987533569336 c0.92,0 1.34,-0.3251864204406749 1.34,-0.8544688224792486 c0,-0.6728331642150895 -1.09,-0.8964598617553716 -2.325,-1.2626607856750491 c-1.57,-0.44920646667480585 -3.35,-1.1620775985717773 -3.35,-3.320221710205078 c0,-2.2196658668518072 1.843,-3.4618194007873533 4.104,-3.4618194007873533 c1.424,0 2.974,0.4687371826171872 4.188,1.2626607856750491 l-1.214,2.138613395690918 c-1.11,-0.6318186607360846 -2.22,-1.0185268363952635 -3.037,-1.0185268363952635 c-0.774,0 -1.172,0.32616295623779384 -1.172,0.7949001388549809 c0,0.6103348731994643 1.068,0.8954833259582509 2.282,1.3026987533569336 c1.57,0.5087751502990737 3.392,1.242153533935547 3.392,3.2792072067260745 c0,2.4227853126525876 -1.863,3.5223646202087404 -4.292,3.5223646202087404 c-1.57,0 -3.33,-0.5077986145019536 -4.817,-1.6493689613342286 M72.298,13.42053145980835 l1.361,-2.0360771369934083 c1.215,0.8544688224792486 2.493,1.3026987533569336 3.54,1.3026987533569336 c0.92,0 1.34,-0.3251864204406749 1.34,-0.8544688224792486 c0,-0.6728331642150895 -1.09,-0.8964598617553716 -2.325,-1.2626607856750491 c-1.57,-0.44920646667480585 -3.35,-1.1620775985717773 -3.35,-3.320221710205078 c0,-2.2196658668518072 1.843,-3.4618194007873533 4.104,-3.4618194007873533 c1.424,0 2.974,0.4687371826171872 4.188,1.2626607856750491 l-1.214,2.138613395690918 c-1.11,-0.6318186607360846 -2.22,-1.0185268363952635 -3.037,-1.0185268363952635 c-0.775,0 -1.173,0.32616295623779384 -1.173,0.7949001388549809 c0,0.6103348731994643 1.069,0.8954833259582509 2.283,1.3026987533569336 c1.57,0.5087751502990737 3.3930000000000002,1.242153533935547 3.3930000000000002,3.2792072067260745 c0,2.4227853126525876 -1.8650000000000002,3.5223646202087404 -4.293,3.5223646202087404 c-1.5710000000000002,0 -3.33,-0.5077986145019536 -4.817,-1.6493689613342286 M1.4759999999999955,29.587081581115726 c0,-3.1151491928100588 2.45,-5.68148526763916 5.884,-5.68148526763916 c2.115,0 3.4130000000000003,0.7743928871154786 4.46,1.9140101623535157 l-1.864,1.832957691192627 c-0.6900000000000022,-0.6308421249389654 -1.36,-1.0790720558166504 -2.617,-1.0790720558166504 c-1.5910000000000002,0 -2.722,1.3642205085754395 -2.722,3.0135894699096677 c0,1.669876213073733 1.11,3.0145660057067873 2.848,3.0145660057067873 c1.068,0 1.8,-0.44822993087768637 2.575,-1.1611010627746583 l1.864,1.832957691192627 c-1.089,1.1611010627746583 -2.345,1.9950626335144044 -4.586,1.9950626335144044 c-3.371,0 -5.8420000000000005,-2.5243450355529786 -5.8420000000000005,-5.68148526763916 M21.746000000000006,29.587081581115726 c0,-1.6083544578552251 -1.195,-3.0135894699096677 -2.9530000000000003,-3.0135894699096677 c-1.822,0 -2.911,1.3642205085754395 -2.911,3.0135894699096677 c0,1.6093309936523439 1.194,3.0145660057067873 2.952,3.0145660057067873 c1.822,0 2.911,-1.3642205085754395 2.911,-3.0145660057067873 m-9.004,0 c0,-3.1356564445495603 2.597,-5.68148526763916 6.093,-5.68148526763916 c3.477,0 6.052,2.5048143196105963 6.052,5.68148526763916 c0,3.13663298034668 -2.596,5.68148526763916 -6.093,5.68148526763916 c-3.477,0 -6.052,-2.5038377838134767 -6.052,-5.68148526763916 M26.745,24.109692295074467 h3.183 v1.5478092384338398 c0.7330000000000014,-0.9169671134948748 1.6750000000000007,-1.7519052200317384 3.2880000000000003,-1.7519052200317384 c2.407,0 3.81,1.5478092384338398 3.81,4.052623558044434 v7.0662130279541016 h-3.182 v-6.088700695037842 c0,-1.4667567672729493 -0.7120000000000006,-2.2196658668518072 -1.927,-2.2196658668518072 c-1.214,0 -1.99,0.7529090995788594 -1.99,2.2196658668518072 v6.088700695037842 H26.746000000000006 V24.109692295074467 zM40.06400000000001,26.75708084106445 h-1.32 v-2.5458288230896002 h1.32 v-0.6933404159545928 c0,-1.201139030456543 0.3140000000000007,-2.076115104675293 0.9,-2.646412010192871 c0.5870000000000006,-0.5702969055175786 1.445,-0.8554453582763676 2.576,-0.8554453582763676 c1.005,0 1.6750000000000007,0.12206697463989259 2.262,0.3056557044982912 V22.886092941284183 c-0.461,-0.16210494232177775 -0.9,-0.2636646652221686 -1.445,-0.2636646652221686 c-0.7330000000000014,0 -1.1520000000000001,0.36620092391967907 -1.1520000000000001,1.180631778717041 v0.42772267913818435 h2.576 v2.525321571350098 h-2.534 v8.267352058410644 h-3.183 v-8.267352058410644 zM54.54900000000001,28.712105506896975 c-0.1890000000000004,-1.3847277603149428 -1.026,-2.3222021255493166 -2.366,-2.3222021255493166 c-1.32,0 -2.178,0.9169671134948748 -2.43,2.3222021255493166 h4.796 zm-7.916,0.8749760742187517 c0,-3.1151491928100588 2.283,-5.68148526763916 5.55,-5.68148526763916 c3.748,0 5.465,2.8309772758483893 5.465,5.926595752716064 c0,0.24413394927978516 -0.021000000000000064,0.5292824020385754 -0.042000000000000114,0.8144308547973627 h-7.8100000000000005 c0.3140000000000007,1.4052350120544435 1.319,2.138613395690918 2.7430000000000003,2.138613395690918 c1.068,0 1.842,-0.32616295623779384 2.722,-1.1200865592956544 l1.822,1.5673399543762208 c-1.047,1.2626607856750491 -2.555,2.037053672790527 -4.586,2.037053672790527 c-3.372,0 -5.864,-2.3016948738098146 -5.864,-5.682461803436279 zM59.73100000000001,24.109692295074467 h3.183 v2.1991586151123044 c0.6490000000000017,-1.506794734954834 1.6960000000000006,-2.484307067871094 3.58,-2.402278060913086 v3.2372161674499513 h-0.1670000000000005 c-2.115,0 -3.4130000000000003,1.242153533935547 -3.4130000000000003,3.848527576446533 v4.033092842102051 h-3.183 V24.108715759277345 zM75.46199999999999,28.712105506896975 c-0.1890000000000004,-1.3847277603149428 -1.026,-2.3222021255493166 -2.366,-2.3222021255493166 c-1.32,0 -2.178,0.9169671134948748 -2.43,2.3222021255493166 h4.796 zm-7.916,0.8749760742187517 c0,-3.1151491928100588 2.283,-5.68148526763916 5.55,-5.68148526763916 c3.748,0 5.465,2.8309772758483893 5.465,5.926595752716064 c0,0.24413394927978516 -0.020000000000000052,0.5292824020385754 -0.042000000000000114,0.8144308547973627 h-7.8100000000000005 c0.3130000000000007,1.4052350120544435 1.319,2.138613395690918 2.7430000000000003,2.138613395690918 c1.068,0 1.842,-0.32616295623779384 2.722,-1.1200865592956544 l1.822,1.5673399543762208 c-1.047,1.2626607856750491 -2.555,2.037053672790527 -4.586,2.037053672790527 c-3.372,0 -5.864,-2.3016948738098146 -5.864,-5.682461803436279 zM80.644,24.109692295074467 h3.183 v1.5478092384338398 c0.7330000000000014,-0.9169671134948748 1.6750000000000007,-1.7519052200317384 3.287,-1.7519052200317384 c2.409,0 3.811,1.5478092384338398 3.811,4.052623558044434 v7.0662130279541016 h-3.182 v-6.088700695037842 c0,-1.4667567672729493 -0.7120000000000006,-2.2196658668518072 -1.927,-2.2196658668518072 c-1.214,0 -1.99,0.7529090995788594 -1.99,2.2196658668518072 v6.088700695037842 h-3.182 V24.109692295074467 zM92.886,29.587081581115726 c0,-3.1151491928100588 2.45,-5.68148526763916 5.884,-5.68148526763916 c2.115,0 3.414,0.7743928871154786 4.461,1.9140101623535157 l-1.864,1.832957691192627 c-0.6910000000000022,-0.6308421249389654 -1.361,-1.0790720558166504 -2.617,-1.0790720558166504 c-1.592,0 -2.723,1.3642205085754395 -2.723,3.0135894699096677 c0,1.669876213073733 1.11,3.0145660057067873 2.848,3.0145660057067873 c1.068,0 1.8010000000000002,-0.44822993087768637 2.576,-1.1611010627746583 l1.864,1.832957691192627 c-1.09,1.1611010627746583 -2.345,1.9950626335144044 -4.586,1.9950626335144044 c-3.372,0 -5.843,-2.5243450355529786 -5.843,-5.68148526763916 M112.138,28.712105506896975 c-0.1880000000000004,-1.3847277603149428 -1.026,-2.3222021255493166 -2.366,-2.3222021255493166 c-1.32,0 -2.178,0.9169671134948748 -2.43,2.3222021255493166 h4.796 zm-7.915,0.8749760742187517 c0,-3.1151491928100588 2.282,-5.68148526763916 5.549,-5.68148526763916 c3.748,0 5.466,2.8309772758483893 5.466,5.926595752716064 c0,0.24413394927978516 -0.021000000000000064,0.5292824020385754 -0.042000000000000114,0.8144308547973627 h-7.811 c0.3140000000000007,1.4052350120544435 1.319,2.138613395690918 2.7430000000000003,2.138613395690918 c1.068,0 1.843,-0.32616295623779384 2.722,-1.1200865592956544 l1.822,1.5673399543762208 c-1.047,1.2626607856750491 -2.555,2.037053672790527 -4.586,2.037053672790527 c-3.371,0 -5.863,-2.3016948738098146 -5.863,-5.682461803436279 zM-3.552713678800501e-15,9.521224014577657 " id="svg_5"/>
        </g>
    </g></g></svg>