<svg xmlns="http://www.w3.org/2000/svg" width="181.5625000349246" height="37.5625000349246" style=""><rect id="backgroundrect" width="100%" height="100%" x="0" y="0" fill="none" stroke="none" style="" class="selected"/>
    
<g class="currentLayer" style=""><title>Layer 1</title><g fill="none" fill-rule="evenodd" id="svg_1" class="">
        <path fill="#FFCB4D" d="M45.34,0.2899999924898148 l0.8160000000000001,4.667 l-3.648,-2.8600000000000003 l-1.441,2.496 l4.133,1.6500000000000001 l-4.14,1.455 l1.4340000000000002,2.496 l3.475,-2.793 l-0.534,4.584 l2.867,-0.006000000000000002 l-0.8160000000000001,-4.427 l3.607,2.784 L52.5,7.899999992489815 l-4.4190000000000005,-1.84 l4.489,-1.6550000000000002 l-1.48,-2.442 l-3.466,2.665 l0.5900000000000001,-4.339 z" id="svg_2"/>
        <path fill="#00E2B5" d="M20.897,0.33599999248981477 L0,35.357999992489816 h14.027 L34.873,0.3349999924898148 z" id="svg_3"/>
        <g fill="#242424" id="svg_4">
            <path d="M75.31,9.613999992489815 c0,-1.856 -1.256,-3.086 -2.742,-3.086 c-1.487,0 -2.723,1.23 -2.723,3.128 c0,1.856 1.236,3.086 2.723,3.086 c1.486,0 2.7430000000000003,-1.21 2.7430000000000003,-3.128 zM66.705,4.045999992489815 h3.183 v1.606 c0.775,-1.043 1.843,-1.814 3.497,-1.814 c2.6180000000000003,0 5.11,2.043 5.11,5.818 c0,3.733 -2.45,5.776 -5.11,5.776 c-1.6960000000000002,0 -2.7430000000000003,-0.771 -3.497,-1.6680000000000001 v4.796 h-3.183 V4.045999992489815 zM80.681,15.223999992489814 h3.183 V4.045999992489815 h-3.183 v11.178 zM80.597,2.815999992489815 h3.35 V-7.510185251469181e-9 h-3.35 V2.815999992489815 zM87.08,12.053999992489814 V6.756999992489815 h-1.34 V4.045999992489815 h1.34 V1.1889999924898147 h3.184 V4.045999992489815 h2.638 v2.7110000000000003 h-2.638 v4.776 c0,0.7300000000000001 0.31400000000000006,1.084 1.026,1.084 c0.5860000000000001,0 1.11,-0.14600000000000002 1.57,-0.3960000000000001 v2.544 c-0.6700000000000002,0.3960000000000001 -1.445,0.6470000000000001 -2.513,0.6470000000000001 c-1.947,0 -3.266,-0.772 -3.266,-3.358 M102.223,8.758999992489814 c-0.18800000000000003,-1.4180000000000001 -1.026,-2.3770000000000002 -2.366,-2.3770000000000002 c-1.32,0 -2.178,0.9380000000000001 -2.43,2.3770000000000002 h4.796 zm-7.915,0.8970000000000001 c0,-3.19 2.282,-5.818 5.55,-5.818 c3.748,0 5.465,2.898 5.465,6.068 c0,0.25 -0.022000000000000006,0.542 -0.04200000000000001,0.8340000000000001 h-7.8100000000000005 c0.31300000000000006,1.44 1.318,2.19 2.742,2.19 c1.068,0 1.843,-0.3340000000000001 2.722,-1.147 l1.822,1.606 c-1.047,1.2930000000000001 -2.555,2.085 -4.586,2.085 c-3.371,0 -5.863,-2.356 -5.863,-5.818 zM107.405,4.045999992489815 h3.183 v2.252 c0.6500000000000001,-1.5430000000000001 1.6960000000000002,-2.544 3.58,-2.46 v3.315 h-0.16700000000000004 c-2.115,0 -3.4130000000000003,1.272 -3.4130000000000003,3.942 v4.129 h-3.183 V4.045999992489815 zM115.018,9.634999992489815 c0,-3.19 2.45,-5.818 5.884,-5.818 c2.115,0 3.414,0.792 4.46,1.96 L123.5,7.6539999924898146 c-0.6910000000000002,-0.6470000000000001 -1.361,-1.105 -2.6180000000000003,-1.105 c-1.5910000000000002,0 -2.722,1.3960000000000001 -2.722,3.086 c0,1.71 1.11,3.086 2.848,3.086 c1.068,0 1.8,-0.458 2.576,-1.188 l1.863,1.8760000000000001 c-1.089,1.19 -2.345,2.044 -4.586,2.044 c-3.371,0 -5.8420000000000005,-2.5860000000000003 -5.8420000000000005,-5.818 M126.764,13.742999992489814 l1.362,-2.085 c1.214,0.8750000000000001 2.491,1.334 3.539,1.334 c0.92,0 1.34,-0.3330000000000001 1.34,-0.8750000000000001 c0,-0.6890000000000002 -1.09,-0.918 -2.325,-1.2930000000000001 c-1.57,-0.46 -3.35,-1.19 -3.35,-3.4 c0,-2.273 1.843,-3.545 4.104,-3.545 c1.424,0 2.974,0.48000000000000004 4.188,1.2930000000000001 l-1.214,2.19 c-1.11,-0.6470000000000001 -2.22,-1.043 -3.037,-1.043 c-0.774,0 -1.172,0.3340000000000001 -1.172,0.8140000000000001 c0,0.6250000000000001 1.068,0.917 2.282,1.334 c1.57,0.521 3.392,1.272 3.392,3.358 c0,2.481 -1.863,3.607 -4.292,3.607 c-1.57,0 -3.33,-0.52 -4.817,-1.689 M136.982,13.742999992489814 l1.361,-2.085 c1.215,0.8750000000000001 2.493,1.334 3.54,1.334 c0.92,0 1.34,-0.3330000000000001 1.34,-0.8750000000000001 c0,-0.6890000000000002 -1.09,-0.918 -2.325,-1.2930000000000001 c-1.57,-0.46 -3.35,-1.19 -3.35,-3.4 c0,-2.273 1.843,-3.545 4.104,-3.545 c1.424,0 2.974,0.48000000000000004 4.188,1.2930000000000001 l-1.214,2.19 c-1.11,-0.6470000000000001 -2.22,-1.043 -3.037,-1.043 c-0.775,0 -1.173,0.3340000000000001 -1.173,0.8140000000000001 c0,0.6250000000000001 1.069,0.917 2.283,1.334 c1.57,0.521 3.3930000000000002,1.272 3.3930000000000002,3.358 c0,2.481 -1.8650000000000002,3.607 -4.293,3.607 c-1.5710000000000002,0 -3.33,-0.52 -4.817,-1.689 M66.16,30.297999992489814 c0,-3.19 2.45,-5.818 5.884,-5.818 c2.115,0 3.4130000000000003,0.793 4.46,1.96 l-1.864,1.8770000000000002 c-0.6900000000000002,-0.6460000000000001 -1.36,-1.105 -2.617,-1.105 c-1.5910000000000002,0 -2.722,1.397 -2.722,3.086 c0,1.71 1.11,3.087 2.848,3.087 c1.068,0 1.8,-0.459 2.575,-1.189 l1.864,1.8770000000000002 c-1.089,1.189 -2.345,2.043 -4.586,2.043 c-3.371,0 -5.8420000000000005,-2.585 -5.8420000000000005,-5.818 M86.43,30.297999992489814 c0,-1.6470000000000002 -1.195,-3.086 -2.9530000000000003,-3.086 c-1.822,0 -2.911,1.397 -2.911,3.086 c0,1.6480000000000001 1.194,3.087 2.952,3.087 c1.822,0 2.911,-1.397 2.911,-3.087 m-9.004,0 c0,-3.211 2.597,-5.818 6.093,-5.818 c3.477,0 6.052,2.565 6.052,5.818 c0,3.212 -2.596,5.818 -6.093,5.818 c-3.477,0 -6.052,-2.564 -6.052,-5.818 M91.429,24.688999992489816 h3.183 v1.585 c0.7330000000000001,-0.9390000000000001 1.6750000000000003,-1.794 3.2880000000000003,-1.794 c2.407,0 3.81,1.585 3.81,4.15 v7.236 h-3.182 v-6.235 c0,-1.502 -0.7120000000000001,-2.273 -1.927,-2.273 c-1.214,0 -1.99,0.771 -1.99,2.273 v6.235 H91.43 V24.688999992489816 zM104.748,27.399999992489814 h-1.32 v-2.607 h1.32 v-0.7100000000000001 c0,-1.23 0.31400000000000006,-2.126 0.9,-2.71 c0.5870000000000001,-0.5840000000000001 1.445,-0.8760000000000001 2.576,-0.8760000000000001 c1.005,0 1.6750000000000003,0.125 2.262,0.31300000000000006 V23.435999992489815 c-0.461,-0.16600000000000004 -0.9,-0.27 -1.445,-0.27 c-0.7330000000000001,0 -1.1520000000000001,0.37500000000000006 -1.1520000000000001,1.209 v0.43800000000000006 h2.576 v2.5860000000000003 h-2.534 v8.466 h-3.183 v-8.466 zM119.233,29.401999992489813 c-0.18900000000000003,-1.4180000000000001 -1.026,-2.378 -2.366,-2.378 c-1.32,0 -2.178,0.9390000000000001 -2.43,2.378 h4.796 zm-7.916,0.8960000000000001 c0,-3.19 2.283,-5.818 5.55,-5.818 c3.748,0 5.465,2.899 5.465,6.069 c0,0.25 -0.021000000000000005,0.542 -0.04200000000000001,0.8340000000000001 h-7.8100000000000005 c0.31400000000000006,1.439 1.319,2.19 2.7430000000000003,2.19 c1.068,0 1.842,-0.3340000000000001 2.722,-1.147 l1.822,1.605 c-1.047,1.2930000000000001 -2.555,2.086 -4.586,2.086 c-3.372,0 -5.864,-2.357 -5.864,-5.819 zM124.415,24.688999992489816 h3.183 v2.252 c0.6490000000000001,-1.5430000000000001 1.6960000000000002,-2.544 3.58,-2.46 v3.315 h-0.16700000000000004 c-2.115,0 -3.4130000000000003,1.272 -3.4130000000000003,3.941 v4.13 h-3.183 V24.687999992489814 zM140.146,29.401999992489813 c-0.18900000000000003,-1.4180000000000001 -1.026,-2.378 -2.366,-2.378 c-1.32,0 -2.178,0.9390000000000001 -2.43,2.378 h4.796 zm-7.916,0.8960000000000001 c0,-3.19 2.283,-5.818 5.55,-5.818 c3.748,0 5.465,2.899 5.465,6.069 c0,0.25 -0.020000000000000004,0.542 -0.04200000000000001,0.8340000000000001 h-7.8100000000000005 c0.31300000000000006,1.439 1.319,2.19 2.7430000000000003,2.19 c1.068,0 1.842,-0.3340000000000001 2.722,-1.147 l1.822,1.605 c-1.047,1.2930000000000001 -2.555,2.086 -4.586,2.086 c-3.372,0 -5.864,-2.357 -5.864,-5.819 zM145.328,24.688999992489816 h3.183 v1.585 c0.7330000000000001,-0.9390000000000001 1.6750000000000003,-1.794 3.287,-1.794 c2.409,0 3.811,1.585 3.811,4.15 v7.236 h-3.182 v-6.235 c0,-1.502 -0.7120000000000001,-2.273 -1.927,-2.273 c-1.214,0 -1.99,0.771 -1.99,2.273 v6.235 h-3.182 V24.688999992489816 zM157.57,30.297999992489814 c0,-3.19 2.45,-5.818 5.884,-5.818 c2.115,0 3.414,0.793 4.461,1.96 l-1.864,1.8770000000000002 c-0.6910000000000002,-0.6460000000000001 -1.361,-1.105 -2.617,-1.105 c-1.592,0 -2.723,1.397 -2.723,3.086 c0,1.71 1.11,3.087 2.848,3.087 c1.068,0 1.8010000000000002,-0.459 2.576,-1.189 l1.864,1.8770000000000002 c-1.09,1.189 -2.345,2.043 -4.586,2.043 c-3.372,0 -5.843,-2.585 -5.843,-5.818 M176.822,29.401999992489813 c-0.18800000000000003,-1.4180000000000001 -1.026,-2.378 -2.366,-2.378 c-1.32,0 -2.178,0.9390000000000001 -2.43,2.378 h4.796 zm-7.915,0.8960000000000001 c0,-3.19 2.282,-5.818 5.549,-5.818 c3.748,0 5.466,2.899 5.466,6.069 c0,0.25 -0.021000000000000005,0.542 -0.04200000000000001,0.8340000000000001 h-7.811 c0.31400000000000006,1.439 1.319,2.19 2.7430000000000003,2.19 c1.068,0 1.843,-0.3340000000000001 2.722,-1.147 l1.822,1.605 c-1.047,1.2930000000000001 -2.555,2.086 -4.586,2.086 c-3.371,0 -5.863,-2.357 -5.863,-5.819 zM64.684,9.74999998497963 " id="svg_5"/>
        </g>
    </g></g></svg>